<svg width="180" height="42" viewBox="0 0 180 42" fill="none" xmlns="http://www.w3.org/2000/svg">
<path d="M5.75105 37.3805C1.91702 34.1597 0 28.7003 0 20.79C0 13.0197 1.91702 7.5637 5.75105 4.54951C9.58509 1.53532 15.6276 0 23.7381 0C31.996 0 38.042 1.53983 41.876 4.54951C45.782 7.5637 47.699 12.9497 47.699 20.79C47.699 28.7003 45.782 34.1597 41.8748 37.3105C38.1139 40.4602 32.0691 42 23.7381 42C15.5591 41.9955 9.50962 40.4602 5.74989 37.3805H5.75105Z" fill="white"/>
<path d="M70.2115 19.6603C68.3243 20.1236 66.3849 20.3553 64.4384 20.3501C63.0641 20.4715 61.68 20.2642 60.407 19.7461C60.0437 19.4397 59.7621 19.0523 59.5864 18.617C59.4106 18.1818 59.346 17.7116 59.398 17.2467C59.3233 16.7503 59.3957 16.2434 59.6067 15.7855C59.8177 15.3277 60.1585 14.9378 60.5893 14.6615C61.6259 14.2198 62.7611 14.0419 63.888 14.1444C64.8395 14.176 65.7883 14.2624 66.7293 14.403C66.6376 13.2831 66.5459 13.1092 63.888 13.0234C62.6539 13.0393 61.425 13.1835 60.2224 13.4536L59.7637 10.7814C61.5197 10.4908 63.2981 10.347 65.0794 10.3513C68.745 10.3513 70.3044 11.2985 70.3044 14.0575V19.6614H70.2127L70.2115 19.6603ZM66.7282 16.3865C66.1205 16.3129 65.508 16.2842 64.8959 16.3007C64.4306 16.2743 63.9643 16.3329 63.5211 16.4734C63.3377 16.5592 63.2471 16.7319 63.2471 17.0774C63.2471 17.766 63.4294 17.8529 64.8042 17.8529C65.4487 17.8299 66.0914 17.7723 66.7293 17.6802V16.3842L66.7282 16.3865ZM79.3751 10.4382H83.1314V19.4898C81.0729 20.0407 78.9497 20.3299 76.8148 20.3501C73.5161 20.3501 72.0542 19.0563 72.0542 15.7814V10.5229H75.8105V15.5228C75.8105 16.2126 75.9022 16.7308 76.1774 16.9024C76.6692 17.2009 77.2529 17.3227 77.8274 17.2467C78.0096 17.2467 78.56 17.1609 79.4762 17.074V10.436H79.3856L79.3751 10.4382ZM91.567 17.3348C91.2012 17.3348 90.8343 17.4205 90.6508 17.4205C89.2761 17.4205 88.8174 17.162 88.8174 16.3865V13.3678H91.4752C91.6196 12.2939 92.0633 11.2789 92.7583 10.4326H88.8139V7.41953H85.0588V16.8155C85.0013 17.3195 85.0621 17.8297 85.2366 18.3076C85.4112 18.7855 85.695 19.2187 86.0667 19.5745C86.9643 20.1286 88.028 20.372 89.0856 20.2654C90.3164 20.2705 91.5445 20.1548 92.7513 19.92C92.0896 19.1982 91.6735 18.2953 91.56 17.3348H91.567ZM131.613 17.3348C131.247 17.3348 130.88 17.4205 130.697 17.4205C129.322 17.4205 128.863 17.162 128.863 16.3865V13.3678H131.521C131.666 12.2939 132.109 11.2789 132.804 10.4326H128.863V7.41953H125.107V16.8155C125.05 17.3195 125.11 17.8297 125.285 18.3076C125.46 18.7855 125.743 19.2187 126.115 19.5745C127.013 20.1287 128.076 20.3721 129.134 20.2654C130.365 20.2705 131.593 20.1548 132.8 19.92C132.21 19.1552 131.803 18.272 131.608 17.3348H131.613ZM94.4988 19.2313C93.9882 18.7063 93.6009 18.0798 93.3635 17.3951C93.1262 16.7105 93.0445 15.9838 93.124 15.2655C93.124 13.3696 93.5823 12.0767 94.4988 11.3865C95.8019 10.5599 97.3458 10.1669 98.8983 10.2666C100.455 10.1242 102.013 10.5209 103.298 11.3865C103.808 11.8937 104.196 12.5048 104.434 13.1756C104.672 13.8465 104.753 14.5603 104.673 15.2655C104.752 15.9838 104.67 16.7105 104.433 17.3951C104.196 18.0798 103.808 18.7063 103.298 19.2313C102.013 20.0974 100.455 20.4944 98.8983 20.3523C97.3458 20.4521 95.8019 20.0591 94.4988 19.2325V19.2313ZM97.2483 17.249C97.7495 17.5314 98.3185 17.6802 98.8977 17.6802C99.477 17.6802 100.046 17.5314 100.547 17.249C100.821 16.9904 100.913 16.3018 100.913 15.2666C101.007 14.5571 100.88 13.8364 100.547 13.1984C100.046 12.9159 99.477 12.7672 98.8977 12.7672C98.3185 12.7672 97.7495 12.9159 97.2483 13.1984C96.9743 13.4569 96.8826 14.1467 96.8826 15.2666C96.8779 16.2984 96.9697 16.987 97.2449 17.2467L97.2483 17.249ZM106.595 23.6284V10.7803C108.358 10.3249 110.18 10.1215 112.003 10.1763C113.576 10.0309 115.154 10.3948 116.493 11.2115C117.409 11.9009 117.868 13.1939 117.868 15.0905C117.868 18.7978 116.493 20.2631 113.56 20.2631C112.423 20.2598 111.299 20.0244 110.261 19.5723V23.5381H106.595V23.6284ZM110.353 16.9904C110.353 17.249 111.177 17.5063 112.185 17.5063C113.102 17.5063 113.652 17.3348 113.835 17.0762C114.148 16.5878 114.278 16.009 114.202 15.4382C114.202 14.3183 114.11 13.7143 113.835 13.4558C113.299 13.0998 112.647 12.9468 112.003 13.0257C111.419 13.0403 110.836 13.098 110.261 13.1984V16.9916L110.353 16.9904ZM122.999 6.3877C123.273 6.56043 123.457 6.99167 123.457 7.68031C123.49 7.92889 123.466 8.18139 123.386 8.41984C123.307 8.65828 123.175 8.8768 122.999 9.05983C122.507 9.3577 121.923 9.47945 121.349 9.40415C120.746 9.46433 120.138 9.34421 119.607 9.05983C119.438 8.87214 119.311 8.65305 119.232 8.4159C119.153 8.17874 119.125 7.92847 119.148 7.68031C119.148 6.99054 119.332 6.56043 119.607 6.3877C120.157 6.16286 120.755 6.07403 121.349 6.12918C121.911 6.08052 122.476 6.16818 122.995 6.38432L122.999 6.3877ZM123.181 20.0949H119.425V10.436H123.181V20.0949ZM143.433 19.8364C141.964 20.1778 140.453 20.3229 138.943 20.2677C135.094 20.2677 133.078 18.5438 133.078 15.1808C132.998 14.4679 133.089 13.7466 133.343 13.0735C133.598 12.4003 134.009 11.7936 134.545 11.3007C135.743 10.4709 137.202 10.0747 138.669 10.1808C140.593 10.1808 141.784 10.3536 142.701 11.0422C143.708 11.732 144.075 12.9388 144.075 14.9211C144.091 15.412 144.06 15.9033 143.984 16.3887H136.836C136.927 17.337 137.478 17.5967 139.402 17.5967C140.515 17.5801 141.622 17.4354 142.701 17.1654L143.433 19.8375V19.8364ZM137.019 13.8882H140.503C140.503 12.9399 140.044 12.6803 138.761 12.6803C137.478 12.6803 137.107 12.9354 137.016 13.8848L137.019 13.8882ZM145.999 20.0972V10.436H149.757V11.5559C150.149 11.0821 150.655 10.7088 151.23 10.4686C151.805 10.2283 152.432 10.1284 153.056 10.1775H153.972V13.3666C153.457 13.279 152.935 13.2499 152.413 13.2797C151.762 13.2683 151.113 13.3555 150.489 13.5382C149.939 13.7109 149.664 13.8825 149.664 14.1422V20.0114H145.998L145.999 20.0972ZM157.18 16.9938C157.356 17.1768 157.488 17.3953 157.568 17.6338C157.647 17.8722 157.671 18.1248 157.638 18.3734C157.696 18.9288 157.532 19.4846 157.18 19.9256C156.653 20.2211 156.042 20.342 155.438 20.2699C154.835 20.3304 154.227 20.2099 153.696 19.9245C153.342 19.485 153.175 18.9293 153.232 18.3734C153.199 18.1243 153.224 17.8713 153.304 17.6327C153.385 17.3942 153.519 17.1759 153.696 16.9938C153.97 16.7353 154.521 16.6495 155.438 16.6495C156.039 16.5878 156.646 16.706 157.176 16.9882L157.18 16.9938ZM159.746 20.0972V10.436H163.503V11.5559C163.896 11.0816 164.401 10.708 164.976 10.4677C165.551 10.2275 166.178 10.1278 166.802 10.1775H167.719V13.3666C167.205 13.2791 166.682 13.25 166.161 13.2797C165.51 13.2683 164.86 13.3555 164.236 13.5382C163.686 13.7109 163.412 13.8825 163.412 14.1422V20.0114H159.742V20.0972H159.746ZM176.241 10.4416H179.998V19.4932C177.938 20.0451 175.812 20.3346 173.675 20.3546C170.376 20.3546 168.914 19.0609 168.914 15.7859V10.5229H172.672V15.5228C172.672 16.2126 172.763 16.7308 173.037 16.9024C173.529 17.2006 174.113 17.3224 174.687 17.2467C174.871 17.2467 175.421 17.1609 176.337 17.074V10.436H176.246L176.241 10.4416Z" fill="white"/>
<path d="M26.1268 28.5636C22.8202 29.409 19.4097 29.8079 15.9913 29.749C12.4882 29.749 10.1787 29.4013 8.98625 28.6336C7.79377 27.8659 7.20044 26.4029 7.20044 24.2421C7.20044 21.9414 7.87041 20.5472 9.29047 19.7796C10.7802 19.013 12.3454 18.8764 14.9533 18.8764C16.624 18.9297 18.2906 19.0691 19.9461 19.2941C19.7975 17.3422 19.5734 17.0634 15.0276 16.9934C12.8712 16.9884 10.7212 17.2225 8.61934 17.6911L7.7961 13.0174C10.846 12.4881 13.9394 12.2311 17.0375 12.2497C23.3714 12.2497 26.0548 13.9928 26.0548 18.7331V28.5636H26.1268ZM20.0158 22.9191C18.9708 22.8491 17.9258 22.7791 16.7368 22.7791C15.9304 22.7108 15.1183 22.8062 14.3518 23.059C14.0534 23.1979 13.8293 23.5467 13.8293 24.1733C13.8293 25.3586 14.202 25.5675 16.587 25.5675C17.7131 25.5473 18.8352 25.4309 19.9403 25.2198V22.9168H20.0146L20.0158 22.9191ZM29.1074 26.0563L35.367 21.036L29.1074 15.9458L31.7896 12.3208L42.2978 19.7807V22.1514L31.7908 29.6812L29.1074 26.0563Z" fill="#F51F34"/>
<path d="M64.7166 25.9607C64.4486 26.0359 64.1695 26.0668 63.891 26.0521C63.617 26.0521 63.4266 26.1435 63.1572 26.1435C62.9327 26.1618 62.7143 26.224 62.5151 26.3264C62.3316 26.4179 62.0507 26.5093 61.873 26.6008C61.6752 26.7027 61.5134 26.86 61.4085 27.0523C61.2248 27.2525 61.1268 27.5134 61.1345 27.7816C61.548 27.5349 62.0254 27.4083 62.5105 27.417C62.8533 27.4337 63.1923 27.4953 63.5183 27.5998C63.8341 27.717 64.1173 27.9045 64.345 28.1474C64.5488 28.4394 64.7326 28.7441 64.8954 29.0595C65.0118 29.4491 65.0762 29.8517 65.087 30.2573C65.0846 30.6893 65.0229 31.1191 64.9035 31.5352C64.7442 31.8728 64.5271 32.1816 64.2614 32.4485C64.0162 32.7136 63.6972 32.9038 63.343 32.996C62.9858 33.1014 62.6163 33.1629 62.2434 33.1789C61.8263 33.2215 61.4048 33.1601 61.0189 33.0005C60.6329 32.841 60.2951 32.5884 60.0373 32.2668C59.5448 31.4354 59.3219 30.4789 59.3975 29.5224C59.3791 28.8426 59.472 28.1643 59.6727 27.5129C59.8031 27.0067 60.0546 26.5376 60.4065 26.1435C60.7427 25.7705 61.147 25.4613 61.599 25.2314C62.1392 25.0212 62.6903 24.8384 63.2501 24.6839C63.4865 24.6084 63.7356 24.5774 63.9839 24.5924C64.2591 24.5924 64.4484 24.501 64.7178 24.501V25.9618L64.7166 25.9607ZM61.0486 29.2469V29.9773C61.0136 30.479 61.1082 30.9811 61.3238 31.4381C61.5072 31.8028 61.7882 31.8897 62.2411 31.8897C62.4071 31.8904 62.5705 31.8491 62.7152 31.7699C62.8599 31.6908 62.981 31.5764 63.0666 31.4381C63.2655 31.1067 63.3611 30.7263 63.3418 30.3431C63.3563 30.1561 63.3249 29.9684 63.2501 29.7956C63.2458 29.6287 63.1808 29.4687 63.0666 29.344C62.9749 29.2526 62.8832 29.0697 62.6997 28.9794C62.5577 28.9047 62.396 28.8729 62.2353 28.8879C62.0176 28.8794 61.8003 28.9104 61.5943 28.9794C61.3952 29.0311 61.2093 29.1226 61.0486 29.248V29.2469ZM71.7786 30.2517C71.7693 30.6832 71.7077 31.1121 71.5951 31.5296C71.4683 31.8914 71.2824 32.231 71.0447 32.5354C70.779 32.7981 70.4687 33.0143 70.1274 33.1744C69.7521 33.3306 69.3427 33.3935 68.9361 33.3573C68.532 33.348 68.1311 33.2865 67.7437 33.1744C67.4024 33.0143 67.092 32.7981 66.8264 32.5354C66.5551 32.2535 66.3653 31.9069 66.276 31.5307C66.1191 31.123 66.0565 30.6867 66.0925 30.2528C66.1019 29.8213 66.1635 29.3924 66.276 28.9749C66.4342 28.6091 66.6509 28.27 66.9181 27.9701C67.1838 27.7074 67.4941 27.4913 67.8354 27.3312C68.2111 27.1749 68.6209 27.112 69.0279 27.1483C69.4316 27.1571 69.8323 27.2186 70.2192 27.3312C70.5608 27.4913 70.8715 27.7074 71.1376 27.9701C71.4268 28.2391 71.6194 28.5913 71.6868 28.9749C71.6868 29.4264 71.7797 29.7978 71.7797 30.2528L71.7786 30.2517ZM70.0369 30.2517C70.0674 29.8382 69.9721 29.4252 69.7628 29.064C69.6657 28.9154 69.5291 28.795 69.3675 28.7155C69.2058 28.636 69.0251 28.6004 68.8444 28.6125C68.6676 28.621 68.4947 28.6656 68.3368 28.7434C68.179 28.8212 68.0398 28.9304 67.9283 29.064C67.7298 29.4292 67.6348 29.8391 67.6531 30.2517C67.6229 30.6648 67.7186 31.0775 67.9283 31.4381C68.0253 31.5866 68.1617 31.7069 68.3231 31.7864C68.4846 31.8658 68.665 31.9015 68.8456 31.8897C69.0225 31.8811 69.1955 31.8364 69.3535 31.7587C69.5116 31.6809 69.651 31.5717 69.7628 31.4381C69.9705 31.0789 70.0654 30.6684 70.0357 30.2573L70.0369 30.2517ZM75.7264 28.6994V29.3384C75.7413 29.5852 75.7102 29.8326 75.6347 30.0688C75.6347 30.3431 75.5441 30.5203 75.5441 30.7992C75.4954 31.0154 75.4341 31.2287 75.3606 31.4381C75.2955 31.6777 75.1693 31.8974 74.9937 32.0771C74.8613 32.3025 74.6718 32.4914 74.4433 32.6258C74.2305 32.8001 73.9795 32.9249 73.7095 32.9904C73.3854 33.1033 73.0447 33.165 72.7005 33.1733L72.517 31.8039C72.8828 31.7125 73.1591 31.621 73.4343 31.5296C73.6574 31.4138 73.8243 31.217 73.8988 30.9821C74.013 30.787 74.0757 30.5675 74.0811 30.3431C74.1566 30.1066 74.1876 29.8588 74.1728 29.6116V27.33H78.5746V33.1733H76.9131V28.6994H75.7264ZM81.7793 29.4298C81.8711 29.4298 82.0545 29.3384 82.1451 29.3384H82.6955C83.0342 29.3232 83.3734 29.3539 83.7033 29.4298C83.9952 29.5129 84.2735 29.6357 84.53 29.7944C84.7359 29.9882 84.9204 30.2023 85.0804 30.4334C85.325 31.019 85.325 31.6744 85.0804 32.26C84.9799 32.5292 84.785 32.7554 84.53 32.8989C84.2937 33.0906 84.0084 33.2166 83.7045 33.2636C83.3749 33.3437 83.0346 33.3746 82.6955 33.355C82.2348 33.3704 81.7737 33.3398 81.3195 33.2636C80.9538 33.1721 80.494 33.1721 80.0365 33.0818V27.4215H81.6876V29.4309H81.7793V29.4298ZM82.6049 32.0771C82.8605 32.0706 83.1114 32.0081 83.3387 31.8942C83.474 31.7869 83.5664 31.637 83.6 31.4704C83.6335 31.3038 83.6059 31.131 83.5222 30.9821C83.4305 30.8906 83.3387 30.7992 83.247 30.7992C83.1553 30.7077 83.0635 30.7077 82.8812 30.7077H81.7805V32.0771H82.6061H82.6049ZM86.3646 33.1721V27.33H88.0157V31.8039H89.574V27.33H91.2251V31.8039H92.7833V27.33H94.4344V33.1733H86.3646V33.1721ZM95.7186 30.342C95.7024 29.8711 95.7965 29.4029 95.9938 28.9726C96.1521 28.6069 96.3688 28.2678 96.6359 27.9679C96.881 27.7032 97.1996 27.513 97.5532 27.4203C97.8796 27.3156 98.219 27.2541 98.5622 27.2375C99.305 27.2284 100.024 27.4888 100.58 27.9679C101.095 28.6203 101.355 29.4292 101.314 30.2505V30.798H97.5486C97.5473 30.9617 97.5887 31.1231 97.6689 31.267C97.7491 31.4109 97.8655 31.5327 98.0072 31.621C98.3376 31.8175 98.7211 31.9127 99.108 31.8942C99.4167 31.909 99.726 31.8781 100.025 31.8028C100.3 31.7113 100.576 31.7113 100.759 31.6199L100.943 32.9893C100.851 32.9893 100.759 33.0807 100.577 33.0807C100.394 33.0807 100.302 33.1721 100.112 33.1721C99.9231 33.1721 99.7454 33.2636 99.562 33.2636H98.9199C98.4457 33.2793 97.9745 33.1852 97.5451 32.9893C97.1756 32.8303 96.8349 32.6146 96.5361 32.3503C96.246 32.0818 96.053 31.7294 95.9857 31.3456C95.7879 31.048 95.6927 30.6968 95.714 30.3431L95.7186 30.342ZM99.5701 29.703C99.5834 29.5471 99.5516 29.3907 99.4784 29.2514C99.4557 29.1149 99.3919 28.988 99.2949 28.8868C99.1909 28.7743 99.0666 28.6813 98.928 28.6125C98.7831 28.5519 98.6271 28.5207 98.4693 28.5207C98.3116 28.5207 98.1556 28.5519 98.0107 28.6125C97.919 28.7039 97.7367 28.7942 97.645 28.8868C97.5886 28.9307 97.543 28.9861 97.5113 29.0492C97.4796 29.1122 97.4626 29.1813 97.4615 29.2514C97.3792 29.3875 97.3468 29.5467 97.3698 29.703H99.5701ZM104.064 31.5296V32.0771C104.073 32.3238 104.042 32.5703 103.972 32.8075C103.954 33.0591 103.892 33.3058 103.788 33.5368C103.712 33.7855 103.62 34.0295 103.513 34.2672C103.373 34.5017 103.251 34.7458 103.148 34.9976L101.863 34.633C102.028 34.188 102.151 33.7292 102.23 33.2625C102.299 32.9015 102.33 32.5345 102.322 32.1674V31.5284H104.064V31.5296ZM109.383 27.33V29.2492C109.369 29.3566 109.387 29.4656 109.436 29.5629C109.485 29.6602 109.562 29.7414 109.658 29.7967C109.885 29.911 110.136 29.9735 110.392 29.9796H111.034V27.4215H112.685V33.1789H111.034V31.2598C110.875 31.2458 110.716 31.2777 110.575 31.3512H110.208C109.869 31.3703 109.529 31.3394 109.199 31.2598C108.908 31.176 108.63 31.0528 108.374 30.894C108.168 30.7005 107.983 30.4863 107.823 30.255C107.71 29.9312 107.648 29.5924 107.64 29.2503V27.3312H109.382L109.383 27.33ZM114.06 30.3431C114.044 29.8723 114.138 29.404 114.335 28.9737C114.494 28.6082 114.71 28.2691 114.977 27.969C115.222 27.7043 115.541 27.5142 115.894 27.4215C116.221 27.3168 116.56 27.2553 116.903 27.2386C117.646 27.2295 118.366 27.4899 118.921 27.969C119.436 28.6214 119.696 29.4303 119.655 30.2517V30.7992H115.896C115.895 30.9634 115.937 31.1251 116.018 31.2691C116.099 31.4131 116.217 31.5346 116.36 31.6221C116.69 31.8187 117.073 31.9139 117.46 31.8953C117.768 31.9101 118.078 31.8793 118.377 31.8039C118.652 31.7125 118.927 31.7125 119.111 31.621L119.293 32.9904C119.202 32.9904 119.111 33.0818 118.927 33.0818C118.744 33.0818 118.652 33.1733 118.463 33.1733C118.274 33.1733 118.097 33.2647 117.912 33.2647H117.27C116.796 33.2804 116.324 33.1864 115.894 32.9904C115.525 32.8315 115.184 32.6157 114.885 32.3514C114.596 32.0826 114.403 31.7303 114.335 31.3467C114.06 31.1638 114.06 30.7077 114.06 30.342V30.3431ZM117.911 29.7041C117.924 29.5482 117.893 29.3918 117.82 29.2526C117.797 29.116 117.733 28.9891 117.636 28.8879C117.532 28.7756 117.408 28.6827 117.27 28.6136C117.125 28.553 116.969 28.5218 116.812 28.5218C116.654 28.5218 116.498 28.553 116.353 28.6136C116.261 28.705 116.078 28.7954 115.986 28.8879C115.93 28.9318 115.884 28.9873 115.852 29.0503C115.821 29.1133 115.804 29.1824 115.803 29.2526C115.72 29.3886 115.688 29.5478 115.711 29.7041H117.911ZM122.497 29.7956V33.1744H120.845C120.836 32.7159 120.866 32.2574 120.937 31.8039C120.937 31.2564 121.029 30.7992 121.029 30.2517C121.029 29.7041 121.119 29.2469 121.119 28.6994C121.211 28.1519 121.211 27.7872 121.303 27.33H122.679C122.953 27.8775 123.321 28.4251 123.596 28.9737C123.871 29.5224 124.146 30.1613 124.422 30.8003C124.697 30.0699 125.064 29.4309 125.339 28.7908C125.553 28.2736 125.83 27.7832 126.165 27.33H127.54C127.631 27.6958 127.631 28.153 127.723 28.7005C127.799 29.2144 127.83 29.7338 127.814 30.2528C127.814 30.8003 127.906 31.3478 127.906 31.805C127.906 32.3526 127.998 32.8098 127.998 33.1744H126.347C126.362 32.5946 126.331 32.0145 126.255 31.4393C126.255 30.8917 126.163 30.3442 126.163 29.7956L124.971 32.5343H123.688L122.495 29.7956H122.497ZM131.669 27.514C131.945 27.4226 132.22 27.33 132.587 27.2397C132.948 27.1642 133.318 27.1334 133.687 27.1483C133.996 27.1335 134.305 27.1644 134.605 27.2397C134.855 27.3164 135.1 27.408 135.339 27.514C135.567 27.6482 135.756 27.8366 135.889 28.0616C136.013 28.3185 136.076 28.5995 136.071 28.8834C136.065 29.1364 136.003 29.3852 135.889 29.6127C135.797 29.7967 135.522 29.9785 135.339 30.1613C135.616 30.298 135.865 30.4837 136.072 30.7089C136.259 30.9779 136.355 31.2966 136.348 31.621C136.352 31.9053 136.289 32.1868 136.164 32.444L135.614 32.9904C135.374 33.1617 135.086 33.2575 134.788 33.2647C134.489 33.3405 134.18 33.3713 133.871 33.3562H133.229C133.011 33.3651 132.793 33.334 132.587 33.2647C132.403 33.2647 132.221 33.1733 132.036 33.1733C131.853 33.0818 131.669 33.0818 131.572 32.9904L131.847 31.7125C132.085 31.7949 132.331 31.8557 132.581 31.8942C132.942 31.9702 133.312 32.0009 133.682 31.9857C134.324 31.9857 134.691 31.8016 134.691 31.437C134.697 31.3875 134.692 31.3373 134.676 31.2899C134.66 31.2425 134.634 31.199 134.599 31.1627C134.507 31.0712 134.507 30.9809 134.415 30.9809C134.324 30.9809 134.232 30.8895 134.14 30.8895H132.489V29.7041H133.773C133.974 29.7161 134.172 29.6504 134.324 29.5212C134.421 29.4201 134.485 29.2931 134.507 29.1566C134.506 29.0863 134.489 29.0171 134.457 28.9539C134.426 28.8907 134.38 28.835 134.324 28.7908C134.136 28.664 133.91 28.6001 133.682 28.6091C133.373 28.5896 133.063 28.6205 132.764 28.7005C132.489 28.792 132.214 28.792 132.031 28.8834L131.664 27.5129L131.669 27.514ZM139.739 27.2397C140.144 27.2415 140.546 27.3035 140.932 27.4237C141.235 27.519 141.516 27.6725 141.757 27.8753C141.965 28.0837 142.123 28.3333 142.222 28.6068C142.302 28.9357 142.333 29.2741 142.313 29.6116V33.0796C142.038 33.171 141.763 33.171 141.304 33.2613C140.789 33.3432 140.267 33.3739 139.745 33.3528C139.406 33.3723 139.066 33.3415 138.736 33.2613C138.444 33.1784 138.167 33.0556 137.91 32.8967C137.705 32.7029 137.52 32.4888 137.36 32.2577C137.246 31.9656 137.184 31.6568 137.177 31.3444C137.172 31.0605 137.235 30.7793 137.36 30.5226C137.493 30.2978 137.682 30.1095 137.91 29.9751C138.143 29.791 138.436 29.6938 138.736 29.7007C139.035 29.625 139.345 29.5942 139.653 29.6093H140.204C140.387 29.6093 140.479 29.6093 140.571 29.7007V29.5179C140.584 29.3974 140.566 29.2757 140.518 29.1639C140.47 29.0522 140.393 28.9541 140.295 28.8789C140.17 28.7742 140.024 28.6958 139.866 28.6485C139.708 28.6013 139.542 28.5864 139.378 28.6046C139.1 28.5898 138.821 28.6207 138.553 28.696C138.297 28.7022 138.046 28.7647 137.819 28.8789L137.636 27.5084C137.728 27.5084 137.819 27.417 138.002 27.417C138.186 27.417 138.277 27.3255 138.467 27.3255C138.656 27.3255 138.832 27.2341 139.017 27.2341H139.751L139.739 27.2397ZM139.831 32.0782H140.657V30.8003H139.557C139.373 30.8003 139.282 30.8917 139.19 30.8917C139.098 30.9832 139.007 30.9832 138.915 31.0746C138.823 31.1661 138.823 31.2575 138.823 31.4393C138.809 31.5468 138.828 31.656 138.877 31.7534C138.926 31.8509 139.003 31.9324 139.098 31.9879C139.282 31.9879 139.563 32.0794 139.832 32.0794L139.831 32.0782ZM148.911 27.3368V33.18H147.26V28.6994H145.518V33.1733H143.867V27.33L148.911 27.3368ZM151.845 27.3368V29.256C151.831 29.3634 151.85 29.4724 151.899 29.5697C151.947 29.667 152.025 29.7482 152.12 29.8035C152.348 29.9177 152.598 29.9802 152.854 29.9864H153.496V27.4215H155.147V33.1789H153.496V31.2598C153.336 31.2447 153.174 31.2766 153.032 31.3512H152.665C152.326 31.3703 151.986 31.3394 151.657 31.2598C151.365 31.1762 151.087 31.0531 150.83 30.894C150.624 30.7004 150.44 30.4862 150.28 30.255C150.166 29.9312 150.104 29.5924 150.096 29.2503V27.3312H151.838L151.845 27.3368ZM158.907 27.2454C159.312 27.2475 159.713 27.3095 160.098 27.4294C160.402 27.5248 160.683 27.6783 160.925 27.8809C161.13 28.0901 161.286 28.3395 161.384 28.6125C161.464 28.9413 161.495 29.2797 161.476 29.6172V33.0796C161.2 33.171 160.925 33.171 160.466 33.2613C159.952 33.3432 159.43 33.3739 158.908 33.3528C158.569 33.3724 158.229 33.3415 157.899 33.2613C157.608 33.1787 157.33 33.0559 157.074 32.8967C156.868 32.7031 156.683 32.489 156.523 32.2577C156.41 31.9655 156.348 31.6567 156.341 31.3444C156.336 31.0606 156.399 30.7794 156.523 30.5226C156.656 30.2977 156.845 30.1093 157.074 29.9751C157.306 29.7908 157.599 29.6935 157.899 29.7007C158.198 29.625 158.508 29.5941 158.817 29.6093H159.367C159.55 29.6093 159.642 29.6093 159.734 29.7007V29.5179C159.747 29.3974 159.729 29.2757 159.681 29.1639C159.633 29.0522 159.556 28.9541 159.459 28.8789C159.333 28.7741 159.187 28.6957 159.029 28.6484C158.872 28.6012 158.705 28.5863 158.541 28.6046C158.263 28.5899 157.984 28.6208 157.716 28.696C157.46 28.7021 157.209 28.7646 156.982 28.8789L156.798 27.5084C156.89 27.5084 156.982 27.417 157.165 27.417C157.349 27.417 157.439 27.3255 157.624 27.3255C157.809 27.3255 157.991 27.2341 158.174 27.2341H158.908L158.907 27.2454ZM159.091 32.0839H159.916V30.8003H158.815C158.724 30.8003 158.54 30.8917 158.448 30.8917C158.357 30.9832 158.265 30.9832 158.174 31.0746C158.084 31.1661 158.083 31.2575 158.083 31.4393C158.07 31.5466 158.088 31.6554 158.137 31.7527C158.186 31.8499 158.262 31.9316 158.357 31.9879C158.54 31.9879 158.724 32.0794 159.091 32.0794V32.0839ZM162.759 30.2584C162.767 29.8566 162.828 29.4575 162.941 29.0708C163.064 28.6889 163.285 28.3437 163.583 28.0672C163.848 27.8043 164.159 27.5881 164.5 27.4282C164.9 27.241 165.339 27.1471 165.783 27.1539C166.062 27.1339 166.342 27.1649 166.609 27.2454C166.884 27.3368 167.159 27.3368 167.343 27.5197L166.976 28.7976C166.792 28.7062 166.609 28.7062 166.425 28.6159C166.242 28.6159 166.058 28.5244 165.783 28.5244C165.578 28.5225 165.374 28.5616 165.185 28.6393C164.995 28.7169 164.825 28.8315 164.683 28.976C164.413 29.3137 164.282 29.7372 164.317 30.1636C164.292 30.3751 164.312 30.5892 164.375 30.7931C164.438 30.997 164.543 31.1864 164.683 31.3501C164.832 31.5101 165.017 31.6342 165.224 31.7126C165.431 31.791 165.654 31.8215 165.875 31.8016C166.093 31.8164 166.312 31.7852 166.517 31.7102C166.744 31.7048 166.965 31.6421 167.159 31.5284L167.434 32.8978C167.207 33.0116 166.956 33.0741 166.701 33.0807C166.401 33.1561 166.092 33.1869 165.783 33.1721C165.309 33.1878 164.838 33.0938 164.409 32.8978C164.054 32.7607 163.739 32.5413 163.491 32.2589C163.22 31.9769 163.03 31.6303 162.941 31.2541C162.753 31.1604 162.753 30.7089 162.753 30.2573L162.759 30.2584ZM173.58 28.7062H171.746V33.18H170.095V28.6994H168.26V27.33H173.671V28.6994H173.579L173.58 28.7062ZM180 27.3368V33.18H178.343V29.7041C178.16 29.9785 177.879 30.3431 177.701 30.6163C177.523 30.8895 177.242 31.2553 177.059 31.5296L176.509 32.3514C176.341 32.587 176.186 32.8308 176.044 33.0818H174.581V27.2386H176.232V30.4345C176.697 29.7956 177.058 29.1566 177.425 28.6994C177.745 28.209 178.113 27.7504 178.525 27.33L180 27.3368Z" fill="white"/>
<path d="M5.75105 37.3805C1.91702 34.1597 0 28.7003 0 20.79C0 13.0197 1.91702 7.5637 5.75105 4.54951C9.58509 1.53532 15.6276 0 23.7381 0C31.996 0 38.042 1.53983 41.876 4.54951C45.782 7.5637 47.699 12.9497 47.699 20.79C47.699 28.7003 45.782 34.1597 41.8748 37.3105C38.1139 40.4602 32.0691 42 23.7381 42C15.5591 41.9955 9.50962 40.4602 5.74989 37.3805H5.75105Z" fill="white"/>
<path d="M70.2115 19.6603C68.3243 20.1236 66.3849 20.3553 64.4384 20.3501C63.0641 20.4715 61.68 20.2642 60.407 19.7461C60.0437 19.4397 59.7621 19.0523 59.5864 18.617C59.4106 18.1818 59.346 17.7116 59.398 17.2467C59.3233 16.7503 59.3957 16.2434 59.6067 15.7855C59.8177 15.3277 60.1585 14.9378 60.5893 14.6615C61.6259 14.2198 62.7611 14.0419 63.888 14.1444C64.8395 14.176 65.7883 14.2624 66.7293 14.403C66.6376 13.2831 66.5459 13.1092 63.888 13.0234C62.6539 13.0393 61.425 13.1835 60.2224 13.4536L59.7637 10.7814C61.5197 10.4908 63.2981 10.347 65.0794 10.3513C68.745 10.3513 70.3044 11.2985 70.3044 14.0575V19.6614H70.2127L70.2115 19.6603ZM66.7282 16.3865C66.1205 16.3129 65.508 16.2842 64.8959 16.3007C64.4306 16.2743 63.9643 16.3329 63.5211 16.4734C63.3377 16.5592 63.2471 16.7319 63.2471 17.0774C63.2471 17.766 63.4294 17.8529 64.8042 17.8529C65.4487 17.8299 66.0914 17.7723 66.7293 17.6802V16.3842L66.7282 16.3865ZM79.3751 10.4382H83.1314V19.4898C81.0729 20.0407 78.9497 20.3299 76.8148 20.3501C73.5161 20.3501 72.0542 19.0563 72.0542 15.7814V10.5229H75.8105V15.5228C75.8105 16.2126 75.9022 16.7308 76.1774 16.9024C76.6692 17.2009 77.2529 17.3227 77.8274 17.2467C78.0096 17.2467 78.56 17.1609 79.4762 17.074V10.436H79.3856L79.3751 10.4382ZM91.567 17.3348C91.2012 17.3348 90.8343 17.4205 90.6508 17.4205C89.2761 17.4205 88.8174 17.162 88.8174 16.3865V13.3678H91.4752C91.6196 12.2939 92.0633 11.2789 92.7583 10.4326H88.8139V7.41953H85.0588V16.8155C85.0013 17.3195 85.0621 17.8297 85.2366 18.3076C85.4112 18.7855 85.695 19.2187 86.0667 19.5745C86.9643 20.1286 88.028 20.372 89.0856 20.2654C90.3164 20.2705 91.5445 20.1548 92.7513 19.92C92.0896 19.1982 91.6735 18.2953 91.56 17.3348H91.567ZM131.613 17.3348C131.247 17.3348 130.88 17.4205 130.697 17.4205C129.322 17.4205 128.863 17.162 128.863 16.3865V13.3678H131.521C131.666 12.2939 132.109 11.2789 132.804 10.4326H128.863V7.41953H125.107V16.8155C125.05 17.3195 125.11 17.8297 125.285 18.3076C125.46 18.7855 125.743 19.2187 126.115 19.5745C127.013 20.1287 128.076 20.3721 129.134 20.2654C130.365 20.2705 131.593 20.1548 132.8 19.92C132.21 19.1552 131.803 18.272 131.608 17.3348H131.613ZM94.4988 19.2313C93.9882 18.7063 93.6009 18.0798 93.3635 17.3951C93.1262 16.7105 93.0445 15.9838 93.124 15.2655C93.124 13.3696 93.5823 12.0767 94.4988 11.3865C95.8019 10.5599 97.3458 10.1669 98.8983 10.2666C100.455 10.1242 102.013 10.5209 103.298 11.3865C103.808 11.8937 104.196 12.5048 104.434 13.1756C104.672 13.8465 104.753 14.5603 104.673 15.2655C104.752 15.9838 104.67 16.7105 104.433 17.3951C104.196 18.0798 103.808 18.7063 103.298 19.2313C102.013 20.0974 100.455 20.4944 98.8983 20.3523C97.3458 20.4521 95.8019 20.0591 94.4988 19.2325V19.2313ZM97.2483 17.249C97.7495 17.5314 98.3185 17.6802 98.8977 17.6802C99.477 17.6802 100.046 17.5314 100.547 17.249C100.821 16.9904 100.913 16.3018 100.913 15.2666C101.007 14.5571 100.88 13.8364 100.547 13.1984C100.046 12.9159 99.477 12.7672 98.8977 12.7672C98.3185 12.7672 97.7495 12.9159 97.2483 13.1984C96.9743 13.4569 96.8826 14.1467 96.8826 15.2666C96.8779 16.2984 96.9697 16.987 97.2449 17.2467L97.2483 17.249ZM106.595 23.6284V10.7803C108.358 10.3249 110.18 10.1215 112.003 10.1763C113.576 10.0309 115.154 10.3948 116.493 11.2115C117.409 11.9009 117.868 13.1939 117.868 15.0905C117.868 18.7978 116.493 20.2631 113.56 20.2631C112.423 20.2598 111.299 20.0244 110.261 19.5723V23.5381H106.595V23.6284ZM110.353 16.9904C110.353 17.249 111.177 17.5063 112.185 17.5063C113.102 17.5063 113.652 17.3348 113.835 17.0762C114.148 16.5878 114.278 16.009 114.202 15.4382C114.202 14.3183 114.11 13.7143 113.835 13.4558C113.299 13.0998 112.647 12.9468 112.003 13.0257C111.419 13.0403 110.836 13.098 110.261 13.1984V16.9916L110.353 16.9904ZM122.999 6.3877C123.273 6.56043 123.457 6.99167 123.457 7.68031C123.49 7.92889 123.466 8.18139 123.386 8.41984C123.307 8.65828 123.175 8.8768 122.999 9.05983C122.507 9.3577 121.923 9.47945 121.349 9.40415C120.746 9.46433 120.138 9.34421 119.607 9.05983C119.438 8.87214 119.311 8.65305 119.232 8.4159C119.153 8.17874 119.125 7.92847 119.148 7.68031C119.148 6.99054 119.332 6.56043 119.607 6.3877C120.157 6.16286 120.755 6.07403 121.349 6.12918C121.911 6.08052 122.476 6.16818 122.995 6.38432L122.999 6.3877ZM123.181 20.0949H119.425V10.436H123.181V20.0949ZM143.433 19.8364C141.964 20.1778 140.453 20.3229 138.943 20.2677C135.094 20.2677 133.078 18.5438 133.078 15.1808C132.998 14.4679 133.089 13.7466 133.343 13.0735C133.598 12.4003 134.009 11.7936 134.545 11.3007C135.743 10.4709 137.202 10.0747 138.669 10.1808C140.593 10.1808 141.784 10.3536 142.701 11.0422C143.708 11.732 144.075 12.9388 144.075 14.9211C144.091 15.412 144.06 15.9033 143.984 16.3887H136.836C136.927 17.337 137.478 17.5967 139.402 17.5967C140.515 17.5801 141.622 17.4354 142.701 17.1654L143.433 19.8375V19.8364ZM137.019 13.8882H140.503C140.503 12.9399 140.044 12.6803 138.761 12.6803C137.478 12.6803 137.107 12.9354 137.016 13.8848L137.019 13.8882ZM145.999 20.0972V10.436H149.757V11.5559C150.149 11.0821 150.655 10.7088 151.23 10.4686C151.805 10.2283 152.432 10.1284 153.056 10.1775H153.972V13.3666C153.457 13.279 152.935 13.2499 152.413 13.2797C151.762 13.2683 151.113 13.3555 150.489 13.5382C149.939 13.7109 149.664 13.8825 149.664 14.1422V20.0114H145.998L145.999 20.0972ZM157.18 16.9938C157.356 17.1768 157.488 17.3953 157.568 17.6338C157.647 17.8722 157.671 18.1248 157.638 18.3734C157.696 18.9288 157.532 19.4846 157.18 19.9256C156.653 20.2211 156.042 20.342 155.438 20.2699C154.835 20.3304 154.227 20.2099 153.696 19.9245C153.342 19.485 153.175 18.9293 153.232 18.3734C153.199 18.1243 153.224 17.8713 153.304 17.6327C153.385 17.3942 153.519 17.1759 153.696 16.9938C153.97 16.7353 154.521 16.6495 155.438 16.6495C156.039 16.5878 156.646 16.706 157.176 16.9882L157.18 16.9938ZM159.746 20.0972V10.436H163.503V11.5559C163.896 11.0816 164.401 10.708 164.976 10.4677C165.551 10.2275 166.178 10.1278 166.802 10.1775H167.719V13.3666C167.205 13.2791 166.682 13.25 166.161 13.2797C165.51 13.2683 164.86 13.3555 164.236 13.5382C163.686 13.7109 163.412 13.8825 163.412 14.1422V20.0114H159.742V20.0972H159.746ZM176.241 10.4416H179.998V19.4932C177.938 20.0451 175.812 20.3346 173.675 20.3546C170.376 20.3546 168.914 19.0609 168.914 15.7859V10.5229H172.672V15.5228C172.672 16.2126 172.763 16.7308 173.037 16.9024C173.529 17.2006 174.113 17.3224 174.687 17.2467C174.871 17.2467 175.421 17.1609 176.337 17.074V10.436H176.246L176.241 10.4416Z" fill="white"/>
<path d="M26.1268 28.5636C22.8202 29.409 19.4097 29.8079 15.9913 29.749C12.4882 29.749 10.1787 29.4013 8.98625 28.6336C7.79377 27.8659 7.20044 26.4029 7.20044 24.2421C7.20044 21.9414 7.87041 20.5472 9.29047 19.7796C10.7802 19.013 12.3454 18.8764 14.9533 18.8764C16.624 18.9297 18.2906 19.0691 19.9461 19.2941C19.7975 17.3422 19.5734 17.0634 15.0276 16.9934C12.8712 16.9884 10.7212 17.2225 8.61934 17.6911L7.7961 13.0174C10.846 12.4881 13.9394 12.2311 17.0375 12.2497C23.3714 12.2497 26.0548 13.9928 26.0548 18.7331V28.5636H26.1268ZM20.0158 22.9191C18.9708 22.8491 17.9258 22.7791 16.7368 22.7791C15.9304 22.7108 15.1183 22.8062 14.3518 23.059C14.0534 23.1979 13.8293 23.5467 13.8293 24.1733C13.8293 25.3586 14.202 25.5675 16.587 25.5675C17.7131 25.5473 18.8352 25.4309 19.9403 25.2198V22.9168H20.0146L20.0158 22.9191ZM29.1074 26.0563L35.367 21.036L29.1074 15.9458L31.7896 12.3208L42.2978 19.7807V22.1514L31.7908 29.6812L29.1074 26.0563Z" fill="#F51F34"/>
<path d="M64.7166 25.9607C64.4486 26.0359 64.1695 26.0668 63.891 26.0521C63.617 26.0521 63.4266 26.1435 63.1572 26.1435C62.9327 26.1618 62.7143 26.224 62.5151 26.3264C62.3316 26.4179 62.0507 26.5093 61.873 26.6008C61.6752 26.7027 61.5134 26.86 61.4085 27.0523C61.2248 27.2525 61.1268 27.5134 61.1345 27.7816C61.548 27.5349 62.0254 27.4083 62.5105 27.417C62.8533 27.4337 63.1923 27.4953 63.5183 27.5998C63.8341 27.717 64.1173 27.9045 64.345 28.1474C64.5488 28.4394 64.7326 28.7441 64.8954 29.0595C65.0118 29.4491 65.0762 29.8517 65.087 30.2573C65.0846 30.6893 65.0229 31.1191 64.9035 31.5352C64.7442 31.8728 64.5271 32.1816 64.2614 32.4485C64.0162 32.7136 63.6972 32.9038 63.343 32.996C62.9858 33.1014 62.6163 33.1629 62.2434 33.1789C61.8263 33.2215 61.4048 33.1601 61.0189 33.0005C60.6329 32.841 60.2951 32.5884 60.0373 32.2668C59.5448 31.4354 59.3219 30.4789 59.3975 29.5224C59.3791 28.8426 59.472 28.1643 59.6727 27.5129C59.8031 27.0067 60.0546 26.5376 60.4065 26.1435C60.7427 25.7705 61.147 25.4613 61.599 25.2314C62.1392 25.0212 62.6903 24.8384 63.2501 24.6839C63.4865 24.6084 63.7356 24.5774 63.9839 24.5924C64.2591 24.5924 64.4484 24.501 64.7178 24.501V25.9618L64.7166 25.9607ZM61.0486 29.2469V29.9773C61.0136 30.479 61.1082 30.9811 61.3238 31.4381C61.5072 31.8028 61.7882 31.8897 62.2411 31.8897C62.4071 31.8904 62.5705 31.8491 62.7152 31.7699C62.8599 31.6908 62.981 31.5764 63.0666 31.4381C63.2655 31.1067 63.3611 30.7263 63.3418 30.3431C63.3563 30.1561 63.3249 29.9684 63.2501 29.7956C63.2458 29.6287 63.1808 29.4687 63.0666 29.344C62.9749 29.2526 62.8832 29.0697 62.6997 28.9794C62.5577 28.9047 62.396 28.8729 62.2353 28.8879C62.0176 28.8794 61.8003 28.9104 61.5943 28.9794C61.3952 29.0311 61.2093 29.1226 61.0486 29.248V29.2469ZM71.7786 30.2517C71.7693 30.6832 71.7077 31.1121 71.5951 31.5296C71.4683 31.8914 71.2824 32.231 71.0447 32.5354C70.779 32.7981 70.4687 33.0143 70.1274 33.1744C69.7521 33.3306 69.3427 33.3935 68.9361 33.3573C68.532 33.348 68.1311 33.2865 67.7437 33.1744C67.4024 33.0143 67.092 32.7981 66.8264 32.5354C66.5551 32.2535 66.3653 31.9069 66.276 31.5307C66.1191 31.123 66.0565 30.6867 66.0925 30.2528C66.1019 29.8213 66.1635 29.3924 66.276 28.9749C66.4342 28.6091 66.6509 28.27 66.9181 27.9701C67.1838 27.7074 67.4941 27.4913 67.8354 27.3312C68.2111 27.1749 68.6209 27.112 69.0279 27.1483C69.4316 27.1571 69.8323 27.2186 70.2192 27.3312C70.5608 27.4913 70.8715 27.7074 71.1376 27.9701C71.4268 28.2391 71.6194 28.5913 71.6868 28.9749C71.6868 29.4264 71.7797 29.7978 71.7797 30.2528L71.7786 30.2517ZM70.0369 30.2517C70.0674 29.8382 69.9721 29.4252 69.7628 29.064C69.6657 28.9154 69.5291 28.795 69.3675 28.7155C69.2058 28.636 69.0251 28.6004 68.8444 28.6125C68.6676 28.621 68.4947 28.6656 68.3368 28.7434C68.179 28.8212 68.0398 28.9304 67.9283 29.064C67.7298 29.4292 67.6348 29.8391 67.6531 30.2517C67.6229 30.6648 67.7186 31.0775 67.9283 31.4381C68.0253 31.5866 68.1617 31.7069 68.3231 31.7864C68.4846 31.8658 68.665 31.9015 68.8456 31.8897C69.0225 31.8811 69.1955 31.8364 69.3535 31.7587C69.5116 31.6809 69.651 31.5717 69.7628 31.4381C69.9705 31.0789 70.0654 30.6684 70.0357 30.2573L70.0369 30.2517ZM75.7264 28.6994V29.3384C75.7413 29.5852 75.7102 29.8326 75.6347 30.0688C75.6347 30.3431 75.5441 30.5203 75.5441 30.7992C75.4954 31.0154 75.4341 31.2287 75.3606 31.4381C75.2955 31.6777 75.1693 31.8974 74.9937 32.0771C74.8613 32.3025 74.6718 32.4914 74.4433 32.6258C74.2305 32.8001 73.9795 32.9249 73.7095 32.9904C73.3854 33.1033 73.0447 33.165 72.7005 33.1733L72.517 31.8039C72.8828 31.7125 73.1591 31.621 73.4343 31.5296C73.6574 31.4138 73.8243 31.217 73.8988 30.9821C74.013 30.787 74.0757 30.5675 74.0811 30.3431C74.1566 30.1066 74.1876 29.8588 74.1728 29.6116V27.33H78.5746V33.1733H76.9131V28.6994H75.7264ZM81.7793 29.4298C81.8711 29.4298 82.0545 29.3384 82.1451 29.3384H82.6955C83.0342 29.3232 83.3734 29.3539 83.7033 29.4298C83.9952 29.5129 84.2735 29.6357 84.53 29.7944C84.7359 29.9882 84.9204 30.2023 85.0804 30.4334C85.325 31.019 85.325 31.6744 85.0804 32.26C84.9799 32.5292 84.785 32.7554 84.53 32.8989C84.2937 33.0906 84.0084 33.2166 83.7045 33.2636C83.3749 33.3437 83.0346 33.3746 82.6955 33.355C82.2348 33.3704 81.7737 33.3398 81.3195 33.2636C80.9538 33.1721 80.494 33.1721 80.0365 33.0818V27.4215H81.6876V29.4309H81.7793V29.4298ZM82.6049 32.0771C82.8605 32.0706 83.1114 32.0081 83.3387 31.8942C83.474 31.7869 83.5664 31.637 83.6 31.4704C83.6335 31.3038 83.6059 31.131 83.5222 30.9821C83.4305 30.8906 83.3387 30.7992 83.247 30.7992C83.1553 30.7077 83.0635 30.7077 82.8812 30.7077H81.7805V32.0771H82.6061H82.6049ZM86.3646 33.1721V27.33H88.0157V31.8039H89.574V27.33H91.2251V31.8039H92.7833V27.33H94.4344V33.1733H86.3646V33.1721ZM95.7186 30.342C95.7024 29.8711 95.7965 29.4029 95.9938 28.9726C96.1521 28.6069 96.3688 28.2678 96.6359 27.9679C96.881 27.7032 97.1996 27.513 97.5532 27.4203C97.8796 27.3156 98.219 27.2541 98.5622 27.2375C99.305 27.2284 100.024 27.4888 100.58 27.9679C101.095 28.6203 101.355 29.4292 101.314 30.2505V30.798H97.5486C97.5473 30.9617 97.5887 31.1231 97.6689 31.267C97.7491 31.4109 97.8655 31.5327 98.0072 31.621C98.3376 31.8175 98.7211 31.9127 99.108 31.8942C99.4167 31.909 99.726 31.8781 100.025 31.8028C100.3 31.7113 100.576 31.7113 100.759 31.6199L100.943 32.9893C100.851 32.9893 100.759 33.0807 100.577 33.0807C100.394 33.0807 100.302 33.1721 100.112 33.1721C99.9231 33.1721 99.7454 33.2636 99.562 33.2636H98.9199C98.4457 33.2793 97.9745 33.1852 97.5451 32.9893C97.1756 32.8303 96.8349 32.6146 96.5361 32.3503C96.246 32.0818 96.053 31.7294 95.9857 31.3456C95.7879 31.048 95.6927 30.6968 95.714 30.3431L95.7186 30.342ZM99.5701 29.703C99.5834 29.5471 99.5516 29.3907 99.4784 29.2514C99.4557 29.1149 99.3919 28.988 99.2949 28.8868C99.1909 28.7743 99.0666 28.6813 98.928 28.6125C98.7831 28.5519 98.6271 28.5207 98.4693 28.5207C98.3116 28.5207 98.1556 28.5519 98.0107 28.6125C97.919 28.7039 97.7367 28.7942 97.645 28.8868C97.5886 28.9307 97.543 28.9861 97.5113 29.0492C97.4796 29.1122 97.4626 29.1813 97.4615 29.2514C97.3792 29.3875 97.3468 29.5467 97.3698 29.703H99.5701ZM104.064 31.5296V32.0771C104.073 32.3238 104.042 32.5703 103.972 32.8075C103.954 33.0591 103.892 33.3058 103.788 33.5368C103.712 33.7855 103.62 34.0295 103.513 34.2672C103.373 34.5017 103.251 34.7458 103.148 34.9976L101.863 34.633C102.028 34.188 102.151 33.7292 102.23 33.2625C102.299 32.9015 102.33 32.5345 102.322 32.1674V31.5284H104.064V31.5296ZM109.383 27.33V29.2492C109.369 29.3566 109.387 29.4656 109.436 29.5629C109.485 29.6602 109.562 29.7414 109.658 29.7967C109.885 29.911 110.136 29.9735 110.392 29.9796H111.034V27.4215H112.685V33.1789H111.034V31.2598C110.875 31.2458 110.716 31.2777 110.575 31.3512H110.208C109.869 31.3703 109.529 31.3394 109.199 31.2598C108.908 31.176 108.63 31.0528 108.374 30.894C108.168 30.7005 107.983 30.4863 107.823 30.255C107.71 29.9312 107.648 29.5924 107.64 29.2503V27.3312H109.382L109.383 27.33ZM114.06 30.3431C114.044 29.8723 114.138 29.404 114.335 28.9737C114.494 28.6082 114.71 28.2691 114.977 27.969C115.222 27.7043 115.541 27.5142 115.894 27.4215C116.221 27.3168 116.56 27.2553 116.903 27.2386C117.646 27.2295 118.366 27.4899 118.921 27.969C119.436 28.6214 119.696 29.4303 119.655 30.2517V30.7992H115.896C115.895 30.9634 115.937 31.1251 116.018 31.2691C116.099 31.4131 116.217 31.5346 116.36 31.6221C116.69 31.8187 117.073 31.9139 117.46 31.8953C117.768 31.9101 118.078 31.8793 118.377 31.8039C118.652 31.7125 118.927 31.7125 119.111 31.621L119.293 32.9904C119.202 32.9904 119.111 33.0818 118.927 33.0818C118.744 33.0818 118.652 33.1733 118.463 33.1733C118.274 33.1733 118.097 33.2647 117.912 33.2647H117.27C116.796 33.2804 116.324 33.1864 115.894 32.9904C115.525 32.8315 115.184 32.6157 114.885 32.3514C114.596 32.0826 114.403 31.7303 114.335 31.3467C114.06 31.1638 114.06 30.7077 114.06 30.342V30.3431ZM117.911 29.7041C117.924 29.5482 117.893 29.3918 117.82 29.2526C117.797 29.116 117.733 28.9891 117.636 28.8879C117.532 28.7756 117.408 28.6827 117.27 28.6136C117.125 28.553 116.969 28.5218 116.812 28.5218C116.654 28.5218 116.498 28.553 116.353 28.6136C116.261 28.705 116.078 28.7954 115.986 28.8879C115.93 28.9318 115.884 28.9873 115.852 29.0503C115.821 29.1133 115.804 29.1824 115.803 29.2526C115.72 29.3886 115.688 29.5478 115.711 29.7041H117.911ZM122.497 29.7956V33.1744H120.845C120.836 32.7159 120.866 32.2574 120.937 31.8039C120.937 31.2564 121.029 30.7992 121.029 30.2517C121.029 29.7041 121.119 29.2469 121.119 28.6994C121.211 28.1519 121.211 27.7872 121.303 27.33H122.679C122.953 27.8775 123.321 28.4251 123.596 28.9737C123.871 29.5224 124.146 30.1613 124.422 30.8003C124.697 30.0699 125.064 29.4309 125.339 28.7908C125.553 28.2736 125.83 27.7832 126.165 27.33H127.54C127.631 27.6958 127.631 28.153 127.723 28.7005C127.799 29.2144 127.83 29.7338 127.814 30.2528C127.814 30.8003 127.906 31.3478 127.906 31.805C127.906 32.3526 127.998 32.8098 127.998 33.1744H126.347C126.362 32.5946 126.331 32.0145 126.255 31.4393C126.255 30.8917 126.163 30.3442 126.163 29.7956L124.971 32.5343H123.688L122.495 29.7956H122.497ZM131.669 27.514C131.945 27.4226 132.22 27.33 132.587 27.2397C132.948 27.1642 133.318 27.1334 133.687 27.1483C133.996 27.1335 134.305 27.1644 134.605 27.2397C134.855 27.3164 135.1 27.408 135.339 27.514C135.567 27.6482 135.756 27.8366 135.889 28.0616C136.013 28.3185 136.076 28.5995 136.071 28.8834C136.065 29.1364 136.003 29.3852 135.889 29.6127C135.797 29.7967 135.522 29.9785 135.339 30.1613C135.616 30.298 135.865 30.4837 136.072 30.7089C136.259 30.9779 136.355 31.2966 136.348 31.621C136.352 31.9053 136.289 32.1868 136.164 32.444L135.614 32.9904C135.374 33.1617 135.086 33.2575 134.788 33.2647C134.489 33.3405 134.18 33.3713 133.871 33.3562H133.229C133.011 33.3651 132.793 33.334 132.587 33.2647C132.403 33.2647 132.221 33.1733 132.036 33.1733C131.853 33.0818 131.669 33.0818 131.572 32.9904L131.847 31.7125C132.085 31.7949 132.331 31.8557 132.581 31.8942C132.942 31.9702 133.312 32.0009 133.682 31.9857C134.324 31.9857 134.691 31.8016 134.691 31.437C134.697 31.3875 134.692 31.3373 134.676 31.2899C134.66 31.2425 134.634 31.199 134.599 31.1627C134.507 31.0712 134.507 30.9809 134.415 30.9809C134.324 30.9809 134.232 30.8895 134.14 30.8895H132.489V29.7041H133.773C133.974 29.7161 134.172 29.6504 134.324 29.5212C134.421 29.4201 134.485 29.2931 134.507 29.1566C134.506 29.0863 134.489 29.0171 134.457 28.9539C134.426 28.8907 134.38 28.835 134.324 28.7908C134.136 28.664 133.91 28.6001 133.682 28.6091C133.373 28.5896 133.063 28.6205 132.764 28.7005C132.489 28.792 132.214 28.792 132.031 28.8834L131.664 27.5129L131.669 27.514ZM139.739 27.2397C140.144 27.2415 140.546 27.3035 140.932 27.4237C141.235 27.519 141.516 27.6725 141.757 27.8753C141.965 28.0837 142.123 28.3333 142.222 28.6068C142.302 28.9357 142.333 29.2741 142.313 29.6116V33.0796C142.038 33.171 141.763 33.171 141.304 33.2613C140.789 33.3432 140.267 33.3739 139.745 33.3528C139.406 33.3723 139.066 33.3415 138.736 33.2613C138.444 33.1784 138.167 33.0556 137.91 32.8967C137.705 32.7029 137.52 32.4888 137.36 32.2577C137.246 31.9656 137.184 31.6568 137.177 31.3444C137.172 31.0605 137.235 30.7793 137.36 30.5226C137.493 30.2978 137.682 30.1095 137.91 29.9751C138.143 29.791 138.436 29.6938 138.736 29.7007C139.035 29.625 139.345 29.5942 139.653 29.6093H140.204C140.387 29.6093 140.479 29.6093 140.571 29.7007V29.5179C140.584 29.3974 140.566 29.2757 140.518 29.1639C140.47 29.0522 140.393 28.9541 140.295 28.8789C140.17 28.7742 140.024 28.6958 139.866 28.6485C139.708 28.6013 139.542 28.5864 139.378 28.6046C139.1 28.5898 138.821 28.6207 138.553 28.696C138.297 28.7022 138.046 28.7647 137.819 28.8789L137.636 27.5084C137.728 27.5084 137.819 27.417 138.002 27.417C138.186 27.417 138.277 27.3255 138.467 27.3255C138.656 27.3255 138.832 27.2341 139.017 27.2341H139.751L139.739 27.2397ZM139.831 32.0782H140.657V30.8003H139.557C139.373 30.8003 139.282 30.8917 139.19 30.8917C139.098 30.9832 139.007 30.9832 138.915 31.0746C138.823 31.1661 138.823 31.2575 138.823 31.4393C138.809 31.5468 138.828 31.656 138.877 31.7534C138.926 31.8509 139.003 31.9324 139.098 31.9879C139.282 31.9879 139.563 32.0794 139.832 32.0794L139.831 32.0782ZM148.911 27.3368V33.18H147.26V28.6994H145.518V33.1733H143.867V27.33L148.911 27.3368ZM151.845 27.3368V29.256C151.831 29.3634 151.85 29.4724 151.899 29.5697C151.947 29.667 152.025 29.7482 152.12 29.8035C152.348 29.9177 152.598 29.9802 152.854 29.9864H153.496V27.4215H155.147V33.1789H153.496V31.2598C153.336 31.2447 153.174 31.2766 153.032 31.3512H152.665C152.326 31.3703 151.986 31.3394 151.657 31.2598C151.365 31.1762 151.087 31.0531 150.83 30.894C150.624 30.7004 150.44 30.4862 150.28 30.255C150.166 29.9312 150.104 29.5924 150.096 29.2503V27.3312H151.838L151.845 27.3368ZM158.907 27.2454C159.312 27.2475 159.713 27.3095 160.098 27.4294C160.402 27.5248 160.683 27.6783 160.925 27.8809C161.13 28.0901 161.286 28.3395 161.384 28.6125C161.464 28.9413 161.495 29.2797 161.476 29.6172V33.0796C161.2 33.171 160.925 33.171 160.466 33.2613C159.952 33.3432 159.43 33.3739 158.908 33.3528C158.569 33.3724 158.229 33.3415 157.899 33.2613C157.608 33.1787 157.33 33.0559 157.074 32.8967C156.868 32.7031 156.683 32.489 156.523 32.2577C156.41 31.9655 156.348 31.6567 156.341 31.3444C156.336 31.0606 156.399 30.7794 156.523 30.5226C156.656 30.2977 156.845 30.1093 157.074 29.9751C157.306 29.7908 157.599 29.6935 157.899 29.7007C158.198 29.625 158.508 29.5941 158.817 29.6093H159.367C159.55 29.6093 159.642 29.6093 159.734 29.7007V29.5179C159.747 29.3974 159.729 29.2757 159.681 29.1639C159.633 29.0522 159.556 28.9541 159.459 28.8789C159.333 28.7741 159.187 28.6957 159.029 28.6484C158.872 28.6012 158.705 28.5863 158.541 28.6046C158.263 28.5899 157.984 28.6208 157.716 28.696C157.46 28.7021 157.209 28.7646 156.982 28.8789L156.798 27.5084C156.89 27.5084 156.982 27.417 157.165 27.417C157.349 27.417 157.439 27.3255 157.624 27.3255C157.809 27.3255 157.991 27.2341 158.174 27.2341H158.908L158.907 27.2454ZM159.091 32.0839H159.916V30.8003H158.815C158.724 30.8003 158.54 30.8917 158.448 30.8917C158.357 30.9832 158.265 30.9832 158.174 31.0746C158.084 31.1661 158.083 31.2575 158.083 31.4393C158.07 31.5466 158.088 31.6554 158.137 31.7527C158.186 31.8499 158.262 31.9316 158.357 31.9879C158.54 31.9879 158.724 32.0794 159.091 32.0794V32.0839ZM162.759 30.2584C162.767 29.8566 162.828 29.4575 162.941 29.0708C163.064 28.6889 163.285 28.3437 163.583 28.0672C163.848 27.8043 164.159 27.5881 164.5 27.4282C164.9 27.241 165.339 27.1471 165.783 27.1539C166.062 27.1339 166.342 27.1649 166.609 27.2454C166.884 27.3368 167.159 27.3368 167.343 27.5197L166.976 28.7976C166.792 28.7062 166.609 28.7062 166.425 28.6159C166.242 28.6159 166.058 28.5244 165.783 28.5244C165.578 28.5225 165.374 28.5616 165.185 28.6393C164.995 28.7169 164.825 28.8315 164.683 28.976C164.413 29.3137 164.282 29.7372 164.317 30.1636C164.292 30.3751 164.312 30.5892 164.375 30.7931C164.438 30.997 164.543 31.1864 164.683 31.3501C164.832 31.5101 165.017 31.6342 165.224 31.7126C165.431 31.791 165.654 31.8215 165.875 31.8016C166.093 31.8164 166.312 31.7852 166.517 31.7102C166.744 31.7048 166.965 31.6421 167.159 31.5284L167.434 32.8978C167.207 33.0116 166.956 33.0741 166.701 33.0807C166.401 33.1561 166.092 33.1869 165.783 33.1721C165.309 33.1878 164.838 33.0938 164.409 32.8978C164.054 32.7607 163.739 32.5413 163.491 32.2589C163.22 31.9769 163.03 31.6303 162.941 31.2541C162.753 31.1604 162.753 30.7089 162.753 30.2573L162.759 30.2584ZM173.58 28.7062H171.746V33.18H170.095V28.6994H168.26V27.33H173.671V28.6994H173.579L173.58 28.7062ZM180 27.3368V33.18H178.343V29.7041C178.16 29.9785 177.879 30.3431 177.701 30.6163C177.523 30.8895 177.242 31.2553 177.059 31.5296L176.509 32.3514C176.341 32.587 176.186 32.8308 176.044 33.0818H174.581V27.2386H176.232V30.4345C176.697 29.7956 177.058 29.1566 177.425 28.6994C177.745 28.209 178.113 27.7504 178.525 27.33L180 27.3368Z" fill="white"/>
</svg>
