<svg width="220" height="28" viewBox="0 0 220 28" fill="none" xmlns="http://www.w3.org/2000/svg">
<path d="M152.723 17.9465H150.621C150.433 19.282 150.358 20.6308 150.396 21.9789C150.396 23.6495 151.223 25.4727 151.223 26.9157C151.223 26.992 146.492 27.1433 146.267 27.1433C146.638 24.05 147.19 20.9811 147.919 17.9522H144.239L137.631 2.45041H135.979V1.38902H147.016V2.45185H144.238L149.343 14.9812C150.17 12.7777 150.995 10.6521 151.822 8.75252C152.572 6.85296 153.999 3.35915 155.576 2.14366C156.645 1.37774 157.944 1.00248 159.256 1.08083C160.461 1.04102 161.662 1.24783 162.784 1.68857C162.721 1.9684 162.593 2.22913 162.408 2.44897C161.987 3.21224 161.829 4.09272 161.958 4.95484H161.353C160.554 4.66964 159.72 4.49097 158.874 4.42342C158.203 4.43271 157.543 4.59487 156.944 4.89758C156.345 5.20028 155.823 5.63557 155.418 6.17033C154.471 7.32415 153.734 8.63542 153.24 10.0443C153.24 10.0443 152.79 11.1835 152.039 13.4618C151.589 14.5247 151.138 15.6653 150.763 16.8044H152.716V17.9436L152.723 17.9465ZM192.892 10.1235H181.329V8.52786H183.282C183.362 7.68216 183.271 6.82894 183.012 6.0196C182.754 5.21027 182.335 4.46155 181.78 3.81856C180.798 3.03152 179.564 2.62837 178.307 2.68428C177.05 2.74019 175.856 3.25134 174.948 4.12243C172.77 6.47708 173.076 11.1101 173.597 14.0724C173.822 14.9841 174.197 16.4271 174.798 18.4779C175.38 19.9568 175.71 21.5228 175.774 23.1108C175.706 23.7928 175.528 24.4593 175.249 25.0853C175.571 25.257 175.935 25.3358 176.3 25.3128C177.217 25.3098 178.12 25.0958 178.94 24.6875C179.761 24.2792 180.476 23.6875 181.031 22.9582C182.458 21.4016 183.26 19.3727 183.283 17.2609V16.4257H181.331V14.8314H192.892V16.4257H191.092C191.092 19.2368 189.44 21.5137 186.136 23.5659C183.17 25.5112 179.697 26.5414 176.15 26.5283C175.056 26.5641 173.963 26.4101 172.922 26.0732C172.975 25.1763 172.873 24.277 172.621 23.4147C171.825 22.0215 170.812 20.765 169.618 19.6934C168.209 18.3407 167.019 16.7778 166.089 15.0604C165.639 14.0328 165.434 12.9147 165.489 11.7941C165.458 10.2528 165.804 8.7273 166.498 7.3505C167.191 5.9737 168.211 4.78738 169.468 3.89489C172.225 1.94487 175.548 0.956025 178.923 1.08083C183.053 1.08083 186.205 1.99245 188.383 3.89201C189.772 5.09443 190.723 6.72395 191.086 8.52498H192.892V10.1235ZM117.356 14.529L120.134 11.7927C120.637 12.1769 121.258 12.3723 121.89 12.3446C122.522 12.317 123.124 12.0681 123.591 11.6415C123.984 11.1701 124.279 10.6251 124.46 10.0384C124.64 9.45168 124.702 8.83488 124.642 8.22398C124.704 6.9303 124.5 5.63763 124.041 4.4263C123.73 3.90687 123.27 3.49228 122.722 3.23569C122.173 2.9791 121.561 2.89221 120.962 2.98615C119.009 2.98615 117.883 3.9741 117.506 6.32874C117.431 7.08914 117.362 8.37952 117.362 10.0501V14.529H117.356ZM117.356 16.8073V24.4027H121.036V25.9955H106.844V24.4027H110.524V2.98327H106.771V1.38902H119.986C123.29 1.11193 126.603 1.79771 129.525 3.36347C130.404 3.84964 131.135 4.56608 131.637 5.43586C132.14 6.30564 132.396 7.2959 132.378 8.30031C132.4 9.20333 132.223 10.1001 131.859 10.927C131.496 11.754 130.955 12.491 130.276 13.0859C129.266 13.9474 128.058 14.5441 126.76 14.8224C125.462 15.1008 124.116 15.0519 122.842 14.6802C122.091 14.4526 121.34 14.0724 120.363 13.6922L117.356 16.8073ZM205.882 24.6302H209.861C211.212 24.6302 213.165 24.479 213.165 22.6558V17.8701C213.224 17.4414 213.117 17.0062 212.864 16.6546C212.269 16.3554 211.64 16.1264 210.992 15.972C209.183 15.5943 207.454 14.9 205.887 13.9212L205.882 24.6302ZM209.562 2.98327H205.882V11.7941C207.395 12.792 209.073 13.5123 210.838 13.9212C212.348 14.3872 213.914 14.6431 215.494 14.6816C216.32 14.6816 217.146 14.6053 218.047 14.6053C219.173 14.6053 220 14.9855 220 16.8836V23.6437C220 26.0747 218.649 25.9983 217.297 25.9983H195.447V24.4027H199.047V2.98327H195.447V1.38902H209.56L209.562 2.98327Z" fill="#0058FF"/>
<path d="M15.6185 16.3524L12.9902 7.5416L10.3619 16.3524H15.6185ZM17.194 21.596H8.78493L7.58384 25.6285H0L9.00959 1.23805H17.1191L26.2108 25.6184H18.3965L17.194 21.596ZM36.1161 20.3806H39.8706C40.8234 20.4715 41.7784 20.2303 42.5738 19.6979C42.8464 19.4645 43.0624 19.1723 43.2056 18.8432C43.3488 18.5142 43.4154 18.1569 43.4004 17.7984C43.4066 17.474 43.3348 17.153 43.1909 16.8622C43.0471 16.5715 42.8354 16.3196 42.5738 16.1278C41.7784 15.5954 40.8234 15.3542 39.8706 15.4452H36.1161V20.3806ZM36.1161 10.8107H39.345C40.1909 10.88 41.0359 10.6662 41.7471 10.203C41.9757 9.97533 42.154 9.7022 42.2703 9.40127C42.3867 9.10034 42.4386 8.77834 42.4226 8.4561C42.4465 8.14441 42.3979 7.83141 42.2808 7.5416C42.1636 7.25178 41.9809 6.99301 41.7471 6.78552C41.0359 6.32232 40.1909 6.10854 39.345 6.17777H36.1161V10.8107ZM28.6072 1.23805H42.4989C44.4338 1.11191 46.3428 1.73773 47.8275 2.98496C48.4401 3.52331 48.9257 4.1908 49.2495 4.93936C49.5732 5.68792 49.727 6.49895 49.6996 7.31405C49.7235 8.67861 49.2424 10.0039 48.3488 11.0354C47.6695 11.8019 46.7834 12.356 45.7968 12.6311C47.284 12.9161 48.6335 13.6889 49.632 14.8273C50.4838 15.9329 50.9101 17.3078 50.8331 18.7013C50.8372 19.8998 50.5263 21.0783 49.9315 22.1188C49.3785 23.0971 48.5753 23.9108 47.6042 24.4763C45.6401 25.2336 43.5526 25.6198 41.4476 25.6155H28.6072V1.23805ZM53.0106 1.23805H75.608V7.23773H68.1034V25.6184H60.5944V7.23773H53.0106V1.23805ZM85.522 13.4664C85.348 15.3413 85.8251 17.2189 86.8729 18.7834C87.3279 19.3075 87.8947 19.7228 88.5315 19.9987C89.1683 20.2746 89.8589 20.4041 90.5524 20.3777C91.2515 20.4153 91.9502 20.2989 92.5993 20.0366C93.2483 19.7743 93.8318 19.3725 94.3084 18.8598C95.315 17.1393 95.761 15.148 95.5843 13.1625C95.7408 11.3609 95.263 9.5612 94.2335 8.07446C93.774 7.5607 93.2044 7.15727 92.5673 6.8942C91.9302 6.63113 91.242 6.51522 90.5539 6.55509C89.8582 6.51144 89.1622 6.63315 88.5226 6.91025C87.883 7.18735 87.3182 7.61197 86.8743 8.14934C85.826 9.71366 85.3484 11.5913 85.522 13.4664ZM89.8021 0.857853H91.3056C94.434 0.819898 97.4624 1.9584 99.791 4.04779C100.92 5.28478 101.787 6.73671 102.341 8.3167C102.895 9.89669 103.125 11.5723 103.017 13.2432C103.111 15.6453 102.648 18.0366 101.666 20.2308C100.74 22.0236 99.3024 23.5012 97.5357 24.4763C95.484 25.5707 93.1766 26.0953 90.8534 25.9957C88.5309 26.0955 86.2171 25.6517 84.0962 24.6996C82.2511 23.7862 80.731 22.3284 79.7412 20.5231C78.5543 18.3641 77.9829 15.9207 78.0894 13.4592C77.9879 11.7602 78.228 10.0582 78.7954 8.45359C79.3629 6.849 80.2461 5.3744 81.3931 4.11692C83.6725 1.98935 86.6842 0.822105 89.8021 0.857853Z" fill="#FF0000"/>
</svg>
