<svg width="170" height="32" viewBox="0 0 170 32" fill="none" xmlns="http://www.w3.org/2000/svg">
<path d="M48.0517 12.5101H29.8193V18.9941H48.0517V12.5101ZM100.508 6.66903H76.2655V12.7628H100.508V6.66903ZM100.508 18.4535H76.2655V24.5473H100.508V18.4535ZM118.998 24.8368H145.732L141.423 30.9145H119.01L118.998 24.8368ZM118.998 7.04329H145.716L141.416 0.95752H119.004L118.998 7.04329ZM152.006 15.9776L149.838 19.0165H118.213V12.9387H149.859L152.003 15.9776H152.006Z" fill="white"/>
<path d="M47.6916 30.932H54.3321V11.7838L62.3364 21.6058L69.9582 11.7838V30.932H76.605V0.957358H70.8419L62.1683 12.1005L53.4692 0.957358H47.69V30.932H47.6916ZM7.85709 12.937C8.01473 11.0477 8.88736 9.28952 10.2972 8.02062C11.7071 6.75172 13.5481 6.06754 15.4452 6.10747C16.3764 6.0464 17.3102 6.17759 18.1884 6.49285C19.0666 6.80812 19.8704 7.30072 20.5497 7.93995C21.229 8.57917 21.7693 9.35132 22.1368 10.2083C22.5043 11.0653 22.6913 11.9887 22.686 12.921L7.85549 12.937H7.85709ZM30.3029 18.5893C30.4832 16.8527 30.4832 15.1022 30.3029 13.3656L30.2421 12.9306C29.9492 9.31461 28.2691 5.95158 25.553 3.54397C22.8368 1.13635 19.2945 -0.129615 15.6662 0.0105055C6.81012 0.0105055 0 6.14905 0 16.2158C0 25.8986 6.68205 31.9988 15.6886 31.9988C18.4929 32.0356 21.2445 31.2359 23.5915 29.7019C25.9385 28.168 27.7741 25.9694 28.8638 23.3875H20.9394C20.2367 24.2045 19.3598 24.8539 18.373 25.2882C17.3863 25.7224 16.3148 25.9305 15.2371 25.897C13.349 25.9247 11.5232 25.2219 10.1418 23.9356C8.76035 22.6494 7.93024 20.8792 7.82507 18.9955H30.2565L30.3029 18.5893ZM119.329 30.932H100.147V0.957358H119.329V7.04793H106.789V12.9338H118.572V19.0115H106.789V24.8334H119.331V30.932H119.329ZM141.276 0.970154H149.328L155.661 10.8865L161.996 0.954159H170L159.662 15.9711L169.994 30.9128H161.972L155.661 21.2411L149.362 30.932H141.285L151.662 15.9695L141.596 1.41479" fill="#1D1D1B"/>
</svg>
