<svg width="138" height="30" viewBox="0 0 138 30" fill="none" xmlns="http://www.w3.org/2000/svg">
<path fill-rule="evenodd" clip-rule="evenodd" d="M16.6711 0.0826581C13.5708 -0.242198 10.4455 0.395452 7.72464 1.90796C5.00376 3.42047 2.82092 5.73359 1.47616 8.52938C0.13139 11.3252 -0.30929 14.4664 0.214688 17.5212C0.738667 20.5761 2.20158 23.3946 4.40235 25.5895C6.60312 27.7843 9.43371 29.2476 12.5051 29.7784C15.5764 30.3091 18.7377 29.8812 21.5545 28.5534C24.3712 27.2256 26.7051 25.0632 28.2354 22.3633C29.7657 19.6634 30.4172 16.5586 30.1005 13.4757C29.7485 10.0502 28.2216 6.84931 25.7762 4.41054C23.3308 1.97177 20.1159 0.443621 16.6711 0.0826581ZM16.1818 22.9395C14.5143 23.1631 12.8183 22.8617 11.3321 22.0775C9.84597 21.2933 8.64437 20.0659 7.89625 18.5677C7.14813 17.0695 6.89111 15.376 7.16131 13.7251C7.43152 12.0742 8.21536 10.549 9.40266 9.36387C10.59 8.17874 12.121 7.39328 13.7806 7.11791C15.4402 6.84253 17.1449 7.09108 18.655 7.82862C20.1652 8.56616 21.4048 9.75561 22.1998 11.2298C22.9947 12.7039 23.3049 14.3886 23.0868 16.0471C22.8576 17.7906 22.057 19.4104 20.8089 20.6562C19.5608 21.902 17.9346 22.7045 16.1818 22.9395ZM38.1728 0.670307C37.6493 0.671397 37.1327 0.788518 36.6606 1.01314C36.1884 1.23776 35.7726 1.56423 35.4434 1.96878C35.1142 2.37333 34.8799 2.84577 34.7575 3.3517C34.6352 3.85763 34.6279 4.38432 34.7361 4.89341C34.919 5.69407 35.3736 6.40773 36.0235 6.91441C36.6733 7.42109 37.4789 7.68989 38.3047 7.67561H48.1021L32.8558 27.7287C32.7414 27.8764 32.671 28.0531 32.6526 28.2386C32.6342 28.4241 32.6686 28.611 32.7517 28.778C32.8349 28.9451 32.9635 29.0856 33.123 29.1836C33.2825 29.2816 33.4665 29.3331 33.654 29.3323H57.5671C58.3919 29.3466 59.1966 29.0786 59.8463 28.5733C60.496 28.068 60.9512 27.356 61.1357 26.5567C61.2436 26.0478 61.2361 25.5214 61.1137 25.0157C60.9913 24.51 60.7571 24.0378 60.4282 23.6334C60.0992 23.2289 59.6837 22.9024 59.2119 22.6776C58.7401 22.4528 58.2239 22.3353 57.7007 22.3336H45.7659L60.9937 2.29381C61.1088 2.14462 61.1797 1.96644 61.1984 1.77934C61.2171 1.59225 61.1829 1.40369 61.0995 1.23491C61.0162 1.06613 60.8871 0.923837 60.7268 0.824081C60.5665 0.724324 60.3813 0.671065 60.1922 0.670307H38.1728ZM133.728 0.756628C132.936 0.943663 132.233 1.39377 131.733 2.03249C131.234 2.67122 130.968 3.46031 130.981 4.26924V15.9226L111.988 0.89607C111.84 0.775134 111.66 0.69888 111.47 0.67634C111.28 0.653801 111.087 0.685921 110.915 0.768895C110.742 0.851869 110.597 0.982221 110.497 1.14451C110.397 1.3068 110.346 1.49422 110.349 1.68458V25.7466C110.336 26.5554 110.601 27.3443 111.101 27.983C111.6 28.6217 112.303 29.0719 113.095 29.2593C113.609 29.3716 114.142 29.3677 114.654 29.248C115.167 29.1283 115.645 28.8958 116.055 28.5676C116.465 28.2394 116.796 27.8239 117.023 27.3518C117.25 26.8796 117.367 26.3629 117.366 25.8396V14.0866L136.362 29.1132C136.51 29.2341 136.689 29.3104 136.879 29.3329C137.07 29.3554 137.262 29.3233 137.435 29.2404C137.607 29.1574 137.752 29.027 137.852 28.8647C137.952 28.7024 138.004 28.515 138 28.3247V4.17462C138 3.65151 137.883 3.13495 137.656 2.66302C137.429 2.19108 137.098 1.77581 136.688 1.4478C136.278 1.11979 135.799 0.887413 135.287 0.767792C134.775 0.64817 134.242 0.644355 133.728 0.756628ZM84.2722 7.00496C92.3061 7.00496 98.3095 11.2264 98.3095 15.0013C98.3095 18.7762 92.3061 22.9976 84.2722 22.9976C76.2383 22.9976 70.235 18.7762 70.235 15.0013C70.235 11.2264 76.2383 7.00496 84.2722 7.00496ZM84.2722 0.00629696C72.643 0.00629696 63.2147 6.71944 63.2147 15.0013C63.2147 23.2832 72.6413 29.9963 84.2706 29.9963C95.8998 29.9963 105.326 23.2832 105.326 15.0013C105.326 6.71944 95.8948 0.00629696 84.2722 0.00629696Z" fill="white"/>
</svg>
